<svg width="1080" height="2050" viewBox="0 0 1080 2050" fill="none" xmlns="http://www.w3.org/2000/svg">
<g clip-path="url(#clip0_215_2)">
<path d="M763.737 850.131C768.081 850.131 771.603 845.268 771.603 839.269C771.603 833.27 768.081 828.407 763.737 828.407C759.393 828.407 755.871 833.27 755.871 839.269C755.871 845.268 759.393 850.131 763.737 850.131Z" fill="#01A7E1"/>
<path d="M789.714 1073.4C792.598 1073.4 794.936 1070.17 794.936 1066.19C794.936 1062.2 792.598 1058.98 789.714 1058.98C786.83 1058.98 784.492 1062.2 784.492 1066.19C784.492 1070.17 786.83 1073.4 789.714 1073.4Z" fill="#01A7E1"/>
<path d="M874.454 933.377C878.798 933.377 882.32 928.514 882.32 922.515C882.32 916.516 878.798 911.653 874.454 911.653C870.11 911.653 866.588 916.516 866.588 922.515C866.588 928.514 870.11 933.377 874.454 933.377Z" fill="#01A7E1"/>
<path d="M1028.8 1047.29C1031.46 1047.29 1033.62 1044.31 1033.62 1040.63C1033.62 1036.95 1031.46 1033.97 1028.8 1033.97C1026.13 1033.97 1023.97 1036.95 1023.97 1040.63C1023.97 1044.31 1026.13 1047.29 1028.8 1047.29Z" fill="#01A7E1"/>
<path d="M1008.04 698.883C1012.71 698.883 1016.5 693.652 1016.5 687.2C1016.5 680.747 1012.71 675.516 1008.04 675.516C1003.37 675.516 999.58 680.747 999.58 687.2C999.58 693.652 1003.37 698.883 1008.04 698.883Z" fill="#01A7E1"/>
<path d="M1028.8 615.181C1031.64 615.181 1033.95 611.994 1033.95 608.062C1033.95 604.13 1031.64 600.942 1028.8 600.942C1025.95 600.942 1023.64 604.13 1023.64 608.062C1023.64 611.994 1025.95 615.181 1028.8 615.181Z" fill="#01A7E1"/>
<path d="M1075 689.481C1070.5 693.498 1065.22 696.875 1060.79 702.443C1037.98 730.831 1043.01 751.094 1075 770.628V689.481Z" fill="url(#paint0_linear_215_2)"/>
<path d="M695.323 2133.44H772.924V2160.64H896.662L896.728 2133.44H1085.38V2074.84H864.67V2058.68H1085.38V2026.46H841.403L838.627 1945.77L835.851 2026.46H825.407L822.631 1988.03L819.855 2026.46H748.533L736.107 2058.68H804.982V2074.84H662.604L646.476 2107.06H692.547L695.323 2133.44Z" fill="url(#paint1_linear_215_2)"/>
<path d="M1008.44 1481.99H994.291V1494.67H1008.44V2160.64H1085.38V992.917L1079.69 1372.91H1063.3L1062.04 1319.42H1040.36L1033.95 1100.44L1027.47 1319.42H1018.75L1016.43 1415.17H990.986V1466.56H1008.44V1481.99Z" fill="url(#paint2_linear_215_2)"/>
<path d="M337.131 765.881H699.291V747.717H326.489L337.131 765.881Z" fill="#164059"/>
<path d="M709.912 1340.24C685.456 1373.55 662.122 1410.61 637.666 1444.02V1964.12H1115.96V930.855L1113.85 928.482V909.678C1114.51 908.583 1115.3 907.488 1115.96 906.392L1115 -1H622V446.259C644.474 475.833 668.732 508.784 691.206 538.45V1064.85L709.912 1085.48V1340.24Z" fill="#164059"/>
<path d="M1031.84 1968.65H730.423V2142.9H1031.84V1968.65Z" fill="#164059"/>
<path d="M1075 2034.01H976.247V2052.63H1075V2034.01Z" fill="#164059"/>
<path d="M1075 2026.16H995.879L1016.9 2044.05H1075V2026.16Z" fill="#164059"/>
<path d="M777.949 2005.44H743.247V2026.16H799.63V2142.91H1046.78V2093.71L1031.84 2084.85L1076 2049V1988.55V930.5V928.262V910.5V906V-1H715.683V440.475L770.943 516.783V1060.35L787.401 1083.07V1352.71L709.074 1460.97V1948.66H670.405V1988.55H777.949V2005.44Z" fill="url(#paint3_linear_215_2)"/>
<path d="M892.631 306.752H949.741V393.557H1000.44V254.267H1060.72V145.555H1076V72.5V-1H876.701V119.358H892.631V306.752Z" fill="url(#paint4_linear_215_2)"/>
<path d="M1075 1435.41V1319.21H1073.22V1037.8H1001.17V1262.07H996.012V1332.63H986.03V1359.83H971.555V1696.28H982.329V1752.42H1014.59V1696.28H1025.1V1891.43H1075V1537.55H1047.37V1359.83H1047.24V1357.55H1071.23V1435.41H1075Z" fill="url(#paint5_linear_215_2)"/>
<path d="M974.529 1154.82H930.771V1155.18H906.182V1160.02H876.569V1463.52H944.982V1348.97H974.529V1154.82Z" fill="url(#paint6_linear_215_2)"/>
<path d="M1008.77 871.856V996.45H1073.15V928.357L1072.82 927.992V909.188L1073.15 908.732V710.75H1026.42V680.81H1022.85V614.542H1020.2V587.615H976.908V614.542H975.982V822.383H983.319V871.856H1008.77Z" fill="url(#paint7_linear_215_2)"/>
<path d="M743.247 2005.44V2026.16H799.629V2141.72H801.018V2131.77H855.087V1916.81H868.968V1636.68H853.633V1466.35H832.745V1296.76H798.572V1257.23H787.467V1187.04H787.401V1352.71L731.349 1430.11V1555.35H767.505V1586.11H786.872V1661.41H778.808V1822.34H781.32V1839.95H761.226V1820.6H753.822V1839.95H732.935V1988.55H777.949V2005.44H743.247Z" fill="url(#paint8_linear_215_2)"/>
<path d="M1002.75 2142.91V2015.85H995.152V1805.81H946.503V1705.13H902.414V1900.74H937.513V2015.85H935.861V1983.9H878.486V2045.33H863.085V2138.52H840.413V2142.91H1002.75Z" fill="url(#paint9_linear_215_2)"/>
<path d="M840.148 703.904H836.909V949.442H861.763V1025.02H875.842V1128.35H914.312V1025.02H928.127V895.588H940.091V988.692H967.72V933.56H981.204V870.578H967.72V866.379H947.56V701.439H906.446V647.129H923.301V557.22H906.446V504.004H885.096V454.075H861.763V504.004H840.148V703.904Z" fill="url(#paint10_linear_215_2)"/>
<path d="M770.942 695.506H798.704V560.597H776.097V512.949H775.04V319.622H763.01V261.752H771.537V272.705H781.319V473.791H854.227V150.301H788.194V115.889H755.342V237.746H715.683V440.475L770.942 516.783V695.506Z" fill="url(#paint11_linear_215_2)"/>
<path d="M1044.4 976.917H1035.14V979.655H1044.4V976.917Z" fill="url(#paint12_linear_215_2)"/>
<path d="M772.859 881.439H770.942V889.563H772.859V881.439Z" fill="url(#paint13_linear_215_2)"/>
<path d="M6.48148 2272.25C11.8889 2245.29 15 2214.65 15 2182.05C15 2130.75 7.37037 2084.02 -5 2049.46V2265.73C-4.25926 2267.9 -3.44444 2270.29 -2.7037 2272.46H6.48148V2272.25Z" fill="url(#paint14_radial_215_2)"/>
<path d="M796.054 147.923V152.03H845.562V147.923H796.054Z" fill="#164059"/>
<path d="M796.02 125.972V130.079H845.528V125.972H796.02Z" fill="#164059"/>
<path d="M796.052 104.021V108.128H845.56V104.021H796.052Z" fill="#164059"/>
<path d="M796.018 82.0697V86.1772H845.526V82.0697H796.018Z" fill="#164059"/>
<path d="M796.05 60.1186V64.2261H845.558V60.1186H796.05Z" fill="#164059"/>
<path d="M796.016 38.1679V42.2754H845.524V38.1679H796.016Z" fill="#164059"/>
<path d="M796.048 16.2167V20.3242L845.556 20.3242V16.2167L796.048 16.2167Z" fill="#164059"/>
<path d="M818.034 1579.99V1584.09H867.543V1579.99H818.034Z" fill="#164059"/>
<path d="M818 1558.03V1562.14H867.508V1558.03H818Z" fill="#164059"/>
<path d="M818.032 1536.08V1540.19H867.541V1536.08H818.032Z" fill="#164059"/>
<path d="M818.064 1514.13V1518.24H867.573V1514.13H818.064Z" fill="#164059"/>
<path d="M818.03 1492.18V1496.29H867.539V1492.18H818.03Z" fill="#164059"/>
<path d="M818.062 1470.23V1474.34H867.571V1470.23H818.062Z" fill="#164059"/>
<path d="M818.028 1448.28V1452.39H867.537V1448.28H818.028Z" fill="#164059"/>
<path d="M818.061 1426.33V1430.44H867.569V1426.33H818.061Z" fill="#164059"/>
<path d="M818.026 1404.38V1408.49H867.535V1404.38H818.026Z" fill="#164059"/>
<path d="M818.059 1382.43V1386.53H867.567V1382.43H818.059Z" fill="#164059"/>
<path d="M818.024 1360.48V1364.58H867.533V1360.48H818.024Z" fill="#164059"/>
<path d="M818.056 1338.52V1342.63H867.564V1338.52H818.056Z" fill="#164059"/>
<path d="M818.022 1316.57V1320.68H867.531V1316.57H818.022Z" fill="#164059"/>
<path d="M818.055 1294.62V1298.73H867.563V1294.62H818.055Z" fill="#164059"/>
<path d="M818.021 1272.67V1276.78H867.529V1272.67H818.021Z" fill="#164059"/>
<path d="M818.052 1250.72V1254.83H867.56V1250.72H818.052Z" fill="#164059"/>
<path d="M818.019 1228.77V1232.88H867.527V1228.77H818.019Z" fill="#164059"/>
<path d="M818.051 1206.82V1210.93H867.559V1206.82H818.051Z" fill="#164059"/>
<path d="M818.016 1184.87V1188.98H867.524V1184.87H818.016Z" fill="#164059"/>
<path d="M818.049 1162.92V1167.02H867.557V1162.92H818.049Z" fill="#164059"/>
<path d="M1008.33 456.587L1076 363.231V355.5L1004.5 454.396V932.512L1055.99 1003.62V1371.38L1015.87 1426.78V2002H1019.7V1428.97L1059.83 1373.57V1001.43L1008.33 930.321V456.587Z" fill="#164059"/>
<path d="M844.049 1163.4H840.215V799.563L922.112 686.378V-77.438H925.946V688.569L844.049 801.754V1163.4Z" fill="#164059"/>
<path d="M763.737 850.131C768.081 850.131 771.603 845.268 771.603 839.269C771.603 833.27 768.081 828.407 763.737 828.407C759.393 828.407 755.871 833.27 755.871 839.269C755.871 845.268 759.393 850.131 763.737 850.131Z" fill="#01A7E1"/>
<path d="M789.714 1073.4C792.598 1073.4 794.936 1070.17 794.936 1066.19C794.936 1062.2 792.598 1058.98 789.714 1058.98C786.83 1058.98 784.492 1062.2 784.492 1066.19C784.492 1070.17 786.83 1073.4 789.714 1073.4Z" fill="#01A7E1"/>
<path d="M874.454 933.377C878.798 933.377 882.32 928.514 882.32 922.515C882.32 916.516 878.798 911.653 874.454 911.653C870.11 911.653 866.588 916.516 866.588 922.515C866.588 928.514 870.11 933.377 874.454 933.377Z" fill="#01A7E1"/>
<path d="M1028.8 1047.29C1031.46 1047.29 1033.62 1044.31 1033.62 1040.63C1033.62 1036.95 1031.46 1033.97 1028.8 1033.97C1026.13 1033.97 1023.97 1036.95 1023.97 1040.63C1023.97 1044.31 1026.13 1047.29 1028.8 1047.29Z" fill="#01A7E1"/>
<path d="M1008.04 698.883C1012.71 698.883 1016.5 693.652 1016.5 687.2C1016.5 680.747 1012.71 675.516 1008.04 675.516C1003.37 675.516 999.58 680.747 999.58 687.2C999.58 693.652 1003.37 698.883 1008.04 698.883Z" fill="#01A7E1"/>
<path d="M1028.8 615.181C1031.64 615.181 1033.95 611.994 1033.95 608.062C1033.95 604.13 1031.64 600.942 1028.8 600.942C1025.95 600.942 1023.64 604.13 1023.64 608.062C1023.64 611.994 1025.95 615.181 1028.8 615.181Z" fill="#01A7E1"/>
<path d="M1075 689.481C1070.5 693.498 1065.22 696.875 1060.79 702.443C1037.98 730.831 1043.01 751.094 1075 770.628V689.481Z" fill="url(#paint15_linear_215_2)"/>
<path d="M695.323 2133.44H772.924V2160.64H896.662L896.728 2133.44H1085.38V2074.84H864.67V2058.68H1085.38V2026.46H841.403L838.627 1945.77L835.851 2026.46H825.407L822.631 1988.03L819.855 2026.46H748.533L736.107 2058.68H804.982V2074.84H662.604L646.476 2107.06H692.547L695.323 2133.44Z" fill="url(#paint16_linear_215_2)"/>
<path d="M1008.44 1481.99H994.291V1494.67H1008.44V2160.64H1085.38V992.917L1079.69 1372.91H1063.3L1062.04 1319.42H1040.36L1033.95 1100.44L1027.47 1319.42H1018.75L1016.43 1415.17H990.986V1466.56H1008.44V1481.99Z" fill="url(#paint17_linear_215_2)"/>
<path d="M337.131 765.881H699.291V747.717H326.489L337.131 765.881Z" fill="#164059"/>
<path d="M709.912 1340.24C685.456 1373.55 662.122 1410.61 637.666 1444.02V1964.12H1115.96V930.855L1113.85 928.482V909.678C1114.51 908.583 1115.3 907.488 1115.96 906.392L1115 -1H622V446.259C644.474 475.833 668.732 508.784 691.206 538.45V1064.85L709.912 1085.48V1340.24Z" fill="#164059"/>
<path d="M1031.84 1968.65H730.423V2142.9H1031.84V1968.65Z" fill="#164059"/>
<path d="M1075 2034.01H976.247V2052.63H1075V2034.01Z" fill="#164059"/>
<path d="M1075 2026.16H995.879L1016.9 2044.05H1075V2026.16Z" fill="#164059"/>
<path d="M777.949 2005.44H743.247V2026.16H799.63V2142.91H1046.78V2093.71L1031.84 2084.85L1076 2049V1988.55V930.5V928.262V910.5V906V-1H715.683V440.475L770.943 516.783V1060.35L787.401 1083.07V1352.71L709.074 1460.97V1948.66H670.405V1988.55H777.949V2005.44Z" fill="url(#paint18_linear_215_2)"/>
<path d="M892.631 306.752H949.741V393.557H1000.44V254.267H1060.72V145.555H1076V72.5V-1H876.701V119.358H892.631V306.752Z" fill="url(#paint19_linear_215_2)"/>
<path d="M1075 1435.41V1319.21H1073.22V1037.8H1001.17V1262.07H996.012V1332.63H986.03V1359.83H971.555V1696.28H982.329V1752.42H1014.59V1696.28H1025.1V1891.43H1075V1537.55H1047.37V1359.83H1047.24V1357.55H1071.23V1435.41H1075Z" fill="url(#paint20_linear_215_2)"/>
<path d="M974.529 1154.82H930.771V1155.18H906.182V1160.02H876.569V1463.52H944.982V1348.97H974.529V1154.82Z" fill="url(#paint21_linear_215_2)"/>
<path d="M1008.77 871.856V996.45H1073.15V928.357L1072.82 927.992V909.188L1073.15 908.732V710.75H1026.42V680.81H1022.85V614.542H1020.2V587.615H976.908V614.542H975.982V822.383H983.319V871.856H1008.77Z" fill="url(#paint22_linear_215_2)"/>
<path d="M743.247 2005.44V2026.16H799.629V2141.72H801.018V2131.77H855.087V1916.81H868.968V1636.68H853.633V1466.35H832.745V1296.76H798.572V1257.23H787.467V1187.04H787.401V1352.71L731.349 1430.11V1555.35H767.505V1586.11H786.872V1661.41H778.808V1822.34H781.32V1839.95H761.226V1820.6H753.822V1839.95H732.935V1988.55H777.949V2005.44H743.247Z" fill="url(#paint23_linear_215_2)"/>
<path d="M1002.75 2142.91V2015.85H995.152V1805.81H946.503V1705.13H902.414V1900.74H937.513V2015.85H935.861V1983.9H878.486V2045.33H863.085V2138.52H840.413V2142.91H1002.75Z" fill="url(#paint24_linear_215_2)"/>
<path d="M840.148 703.904H836.909V949.442H861.763V1025.02H875.842V1128.35H914.312V1025.02H928.127V895.588H940.091V988.692H967.72V933.56H981.204V870.578H967.72V866.379H947.56V701.439H906.446V647.129H923.301V557.22H906.446V504.004H885.096V454.075H861.763V504.004H840.148V703.904Z" fill="url(#paint25_linear_215_2)"/>
<path d="M770.942 695.506H798.704V560.597H776.097V512.949H775.04V319.622H763.01V261.752H771.537V272.705H781.319V473.791H854.227V150.301H788.194V115.889H755.342V237.746H715.683V440.475L770.942 516.783V695.506Z" fill="url(#paint26_linear_215_2)"/>
<path d="M1044.4 976.917H1035.14V979.655H1044.4V976.917Z" fill="url(#paint27_linear_215_2)"/>
<path d="M772.859 881.439H770.942V889.563H772.859V881.439Z" fill="url(#paint28_linear_215_2)"/>
<path d="M6.48148 2272.25C11.8889 2245.29 15 2214.65 15 2182.05C15 2130.75 7.37037 2084.02 -5 2049.46V2265.73C-4.25926 2267.9 -3.44444 2270.29 -2.7037 2272.46H6.48148V2272.25Z" fill="url(#paint29_radial_215_2)"/>
<path d="M796.054 147.923V152.03H845.562V147.923H796.054Z" fill="#164059"/>
<path d="M796.02 125.972V130.079H845.528V125.972H796.02Z" fill="#164059"/>
<path d="M796.052 104.021V108.128H845.56V104.021H796.052Z" fill="#164059"/>
<path d="M796.018 82.0697V86.1772H845.526V82.0697H796.018Z" fill="#164059"/>
<path d="M796.05 60.1186V64.2261H845.558V60.1186H796.05Z" fill="#164059"/>
<path d="M796.016 38.1679V42.2754H845.524V38.1679H796.016Z" fill="#164059"/>
<path d="M796.048 16.2167V20.3242L845.556 20.3242V16.2167L796.048 16.2167Z" fill="#164059"/>
<path d="M818.034 1579.99V1584.09H867.543V1579.99H818.034Z" fill="#164059"/>
<path d="M818 1558.03V1562.14H867.508V1558.03H818Z" fill="#164059"/>
<path d="M818.032 1536.08V1540.19H867.541V1536.08H818.032Z" fill="#164059"/>
<path d="M818.064 1514.13V1518.24H867.573V1514.13H818.064Z" fill="#164059"/>
<path d="M818.03 1492.18V1496.29H867.539V1492.18H818.03Z" fill="#164059"/>
<path d="M818.062 1470.23V1474.34H867.571V1470.23H818.062Z" fill="#164059"/>
<path d="M818.028 1448.28V1452.39H867.537V1448.28H818.028Z" fill="#164059"/>
<path d="M818.061 1426.33V1430.44H867.569V1426.33H818.061Z" fill="#164059"/>
<path d="M818.026 1404.38V1408.49H867.535V1404.38H818.026Z" fill="#164059"/>
<path d="M818.059 1382.43V1386.53H867.567V1382.43H818.059Z" fill="#164059"/>
<path d="M818.024 1360.48V1364.58H867.533V1360.48H818.024Z" fill="#164059"/>
<path d="M818.056 1338.52V1342.63H867.564V1338.52H818.056Z" fill="#164059"/>
<path d="M818.022 1316.57V1320.68H867.531V1316.57H818.022Z" fill="#164059"/>
<path d="M818.055 1294.62V1298.73H867.563V1294.62H818.055Z" fill="#164059"/>
<path d="M818.021 1272.67V1276.78H867.529V1272.67H818.021Z" fill="#164059"/>
<path d="M818.052 1250.72V1254.83H867.56V1250.72H818.052Z" fill="#164059"/>
<path d="M818.019 1228.77V1232.88H867.527V1228.77H818.019Z" fill="#164059"/>
<path d="M818.051 1206.82V1210.93H867.559V1206.82H818.051Z" fill="#164059"/>
<path d="M818.016 1184.87V1188.98H867.524V1184.87H818.016Z" fill="#164059"/>
<path d="M818.049 1162.92V1167.02H867.557V1162.92H818.049Z" fill="#164059"/>
<path d="M1008.33 456.587L1076 363.231V355.5L1004.5 454.396V932.512L1055.99 1003.62V1371.38L1015.87 1426.78V2002H1019.7V1428.97L1059.83 1373.57V1001.43L1008.33 930.321V456.587Z" fill="#164059"/>
<path d="M844.049 1163.4H840.215V799.563L922.112 686.378V-77.438H925.946V688.569L844.049 801.754V1163.4Z" fill="#164059"/>
</g>
<defs>
<linearGradient id="paint0_linear_215_2" x1="1060.82" y1="2198.33" x2="1060.82" y2="495.531" gradientUnits="userSpaceOnUse">
<stop stop-color="#FFFFE6"/>
<stop offset="0.0989339" stop-color="#AFC6C3"/>
<stop offset="0.1979" stop-color="#6591A3"/>
<stop offset="0.2796" stop-color="#306B8C"/>
<stop offset="0.3406" stop-color="#0F547D"/>
<stop offset="0.374" stop-color="#034B78"/>
<stop offset="0.6667" stop-color="#027DB1"/>
<stop offset="0.8836" stop-color="#019BD4"/>
<stop offset="1" stop-color="#01A7E1"/>
</linearGradient>
<linearGradient id="paint1_linear_215_2" x1="865.91" y1="3117.77" x2="865.91" y2="629.397" gradientUnits="userSpaceOnUse">
<stop stop-color="#FFFFE6"/>
<stop offset="0.0989339" stop-color="#AFC6C3"/>
<stop offset="0.1979" stop-color="#6591A3"/>
<stop offset="0.2796" stop-color="#306B8C"/>
<stop offset="0.3406" stop-color="#0F547D"/>
<stop offset="0.374" stop-color="#034B78"/>
<stop offset="0.6667" stop-color="#027DB1"/>
<stop offset="0.8836" stop-color="#019BD4"/>
<stop offset="1" stop-color="#01A7E1"/>
</linearGradient>
<linearGradient id="paint2_linear_215_2" x1="1038.16" y1="3117.77" x2="1038.16" y2="629.374" gradientUnits="userSpaceOnUse">
<stop stop-color="#FFFFE6"/>
<stop offset="0.0989339" stop-color="#AFC6C3"/>
<stop offset="0.1979" stop-color="#6591A3"/>
<stop offset="0.2796" stop-color="#306B8C"/>
<stop offset="0.3406" stop-color="#0F547D"/>
<stop offset="0.374" stop-color="#034B78"/>
<stop offset="0.6667" stop-color="#027DB1"/>
<stop offset="0.8836" stop-color="#019BD4"/>
<stop offset="1" stop-color="#01A7E1"/>
</linearGradient>
<linearGradient id="paint3_linear_215_2" x1="872.701" y1="3508.88" x2="872.701" y2="96.5648" gradientUnits="userSpaceOnUse">
<stop stop-color="#003A57"/>
<stop offset="0.625" stop-color="#3886AD"/>
<stop offset="0.729167" stop-color="#4699C3"/>
<stop offset="1" stop-color="#69C7F7"/>
</linearGradient>
<linearGradient id="paint4_linear_215_2" x1="975.845" y1="3402.93" x2="975.845" y2="-9.38616" gradientUnits="userSpaceOnUse">
<stop offset="0.609375" stop-color="#005884"/>
<stop offset="0.796875" stop-color="#69B8E0"/>
<stop offset="0.9375" stop-color="#4596B1" stop-opacity="0.14"/>
</linearGradient>
<linearGradient id="paint5_linear_215_2" x1="1023.26" y1="3402.93" x2="1023.26" y2="-9.38813" gradientUnits="userSpaceOnUse">
<stop stop-color="#005884"/>
<stop offset="0.59375" stop-color="#3F88AC"/>
<stop offset="1" stop-color="#9DDAF9"/>
</linearGradient>
<linearGradient id="paint6_linear_215_2" x1="925.55" y1="3402.93" x2="925.55" y2="-9.38511" gradientUnits="userSpaceOnUse">
<stop stop-color="#025179"/>
<stop offset="0.625" stop-color="#3E90B9"/>
<stop offset="1" stop-color="#9DDAF9"/>
</linearGradient>
<linearGradient id="paint7_linear_215_2" x1="1024.57" y1="3402.93" x2="1024.57" y2="-9.38771" gradientUnits="userSpaceOnUse">
<stop stop-color="#005884"/>
<stop offset="0.604167" stop-color="#3886AD"/>
<stop offset="1" stop-color="#51C4FF"/>
</linearGradient>
<linearGradient id="paint8_linear_215_2" x1="800.174" y1="3402.93" x2="800.174" y2="-9.39193" gradientUnits="userSpaceOnUse">
<stop stop-color="#1B5B7B"/>
<stop offset="0.6274" stop-color="#3886AD"/>
<stop offset="1" stop-color="#9DDAF9"/>
</linearGradient>
<linearGradient id="paint9_linear_215_2" x1="921.578" y1="3402.93" x2="921.578" y2="-9.38201" gradientUnits="userSpaceOnUse">
<stop stop-color="#003E5C"/>
<stop offset="0.6274" stop-color="#3886AD"/>
<stop offset="1" stop-color="#9DDAF9"/>
</linearGradient>
<linearGradient id="paint10_linear_215_2" x1="909.031" y1="3402.93" x2="909.031" y2="-9.38701" gradientUnits="userSpaceOnUse">
<stop stop-color="#005884"/>
<stop offset="0.59375" stop-color="#3886AD"/>
<stop offset="0.9375" stop-color="#64CBFF"/>
</linearGradient>
<linearGradient id="paint11_linear_215_2" x1="784.956" y1="3402.93" x2="784.956" y2="-9.38548" gradientUnits="userSpaceOnUse">
<stop stop-color="#005884"/>
<stop offset="0.447917" stop-color="#3886AD"/>
<stop offset="1" stop-color="#5FBDED"/>
</linearGradient>
<linearGradient id="paint12_linear_215_2" x1="1039.76" y1="2505.35" x2="1039.76" y2="72.7875" gradientUnits="userSpaceOnUse">
<stop stop-color="#9DDAF9"/>
<stop offset="0.6274" stop-color="#3886AD"/>
<stop offset="1" stop-color="#005884"/>
</linearGradient>
<linearGradient id="paint13_linear_215_2" x1="771.92" y1="2505.26" x2="771.92" y2="72.8435" gradientUnits="userSpaceOnUse">
<stop stop-color="#9DDAF9"/>
<stop offset="0.6274" stop-color="#3886AD"/>
<stop offset="1" stop-color="#005884"/>
</linearGradient>
<radialGradient id="paint14_radial_215_2" cx="0" cy="0" r="1" gradientUnits="userSpaceOnUse" gradientTransform="translate(-59.3433 2182.07) scale(70.4361 206.674)">
<stop stop-color="#FFFFEB"/>
<stop offset="0.1531" stop-color="#BDBDAE"/>
<stop offset="0.3046" stop-color="#838379"/>
<stop offset="0.4494" stop-color="#54544E"/>
<stop offset="0.5864" stop-color="#30302C"/>
<stop offset="0.7135" stop-color="#151514"/>
<stop offset="0.8272" stop-color="#060605"/>
<stop offset="0.9162"/>
</radialGradient>
<linearGradient id="paint15_linear_215_2" x1="1060.82" y1="2198.33" x2="1060.82" y2="495.531" gradientUnits="userSpaceOnUse">
<stop stop-color="#FFFFE6"/>
<stop offset="0.0989339" stop-color="#AFC6C3"/>
<stop offset="0.1979" stop-color="#6591A3"/>
<stop offset="0.2796" stop-color="#306B8C"/>
<stop offset="0.3406" stop-color="#0F547D"/>
<stop offset="0.374" stop-color="#034B78"/>
<stop offset="0.6667" stop-color="#027DB1"/>
<stop offset="0.8836" stop-color="#019BD4"/>
<stop offset="1" stop-color="#01A7E1"/>
</linearGradient>
<linearGradient id="paint16_linear_215_2" x1="865.91" y1="3117.77" x2="865.91" y2="629.397" gradientUnits="userSpaceOnUse">
<stop stop-color="#FFFFE6"/>
<stop offset="0.0989339" stop-color="#AFC6C3"/>
<stop offset="0.1979" stop-color="#6591A3"/>
<stop offset="0.2796" stop-color="#306B8C"/>
<stop offset="0.3406" stop-color="#0F547D"/>
<stop offset="0.374" stop-color="#034B78"/>
<stop offset="0.6667" stop-color="#027DB1"/>
<stop offset="0.8836" stop-color="#019BD4"/>
<stop offset="1" stop-color="#01A7E1"/>
</linearGradient>
<linearGradient id="paint17_linear_215_2" x1="1038.16" y1="3117.77" x2="1038.16" y2="629.374" gradientUnits="userSpaceOnUse">
<stop stop-color="#FFFFE6"/>
<stop offset="0.0989339" stop-color="#AFC6C3"/>
<stop offset="0.1979" stop-color="#6591A3"/>
<stop offset="0.2796" stop-color="#306B8C"/>
<stop offset="0.3406" stop-color="#0F547D"/>
<stop offset="0.374" stop-color="#034B78"/>
<stop offset="0.6667" stop-color="#027DB1"/>
<stop offset="0.8836" stop-color="#019BD4"/>
<stop offset="1" stop-color="#01A7E1"/>
</linearGradient>
<linearGradient id="paint18_linear_215_2" x1="872.701" y1="3508.88" x2="872.701" y2="96.5648" gradientUnits="userSpaceOnUse">
<stop stop-color="#003A57"/>
<stop offset="0.625" stop-color="#3886AD"/>
<stop offset="0.729167" stop-color="#4699C3"/>
<stop offset="1" stop-color="#69C7F7"/>
</linearGradient>
<linearGradient id="paint19_linear_215_2" x1="975.845" y1="3402.93" x2="975.845" y2="-9.38616" gradientUnits="userSpaceOnUse">
<stop offset="0.609375" stop-color="#005884"/>
<stop offset="0.796875" stop-color="#69B8E0"/>
<stop offset="0.9375" stop-color="#4596B1" stop-opacity="0.14"/>
</linearGradient>
<linearGradient id="paint20_linear_215_2" x1="1023.26" y1="3402.93" x2="1023.26" y2="-9.38813" gradientUnits="userSpaceOnUse">
<stop stop-color="#005884"/>
<stop offset="0.59375" stop-color="#3F88AC"/>
<stop offset="1" stop-color="#9DDAF9"/>
</linearGradient>
<linearGradient id="paint21_linear_215_2" x1="925.55" y1="3402.93" x2="925.55" y2="-9.38511" gradientUnits="userSpaceOnUse">
<stop stop-color="#025179"/>
<stop offset="0.625" stop-color="#3E90B9"/>
<stop offset="1" stop-color="#9DDAF9"/>
</linearGradient>
<linearGradient id="paint22_linear_215_2" x1="1024.57" y1="3402.93" x2="1024.57" y2="-9.38771" gradientUnits="userSpaceOnUse">
<stop stop-color="#005884"/>
<stop offset="0.604167" stop-color="#3886AD"/>
<stop offset="1" stop-color="#51C4FF"/>
</linearGradient>
<linearGradient id="paint23_linear_215_2" x1="800.174" y1="3402.93" x2="800.174" y2="-9.39193" gradientUnits="userSpaceOnUse">
<stop stop-color="#1B5B7B"/>
<stop offset="0.6274" stop-color="#3886AD"/>
<stop offset="1" stop-color="#9DDAF9"/>
</linearGradient>
<linearGradient id="paint24_linear_215_2" x1="921.578" y1="3402.93" x2="921.578" y2="-9.38201" gradientUnits="userSpaceOnUse">
<stop stop-color="#003E5C"/>
<stop offset="0.6274" stop-color="#3886AD"/>
<stop offset="1" stop-color="#9DDAF9"/>
</linearGradient>
<linearGradient id="paint25_linear_215_2" x1="909.031" y1="3402.93" x2="909.031" y2="-9.38701" gradientUnits="userSpaceOnUse">
<stop stop-color="#005884"/>
<stop offset="0.59375" stop-color="#3886AD"/>
<stop offset="0.9375" stop-color="#64CBFF"/>
</linearGradient>
<linearGradient id="paint26_linear_215_2" x1="784.956" y1="3402.93" x2="784.956" y2="-9.38548" gradientUnits="userSpaceOnUse">
<stop stop-color="#005884"/>
<stop offset="0.447917" stop-color="#3886AD"/>
<stop offset="1" stop-color="#5FBDED"/>
</linearGradient>
<linearGradient id="paint27_linear_215_2" x1="1039.76" y1="2505.35" x2="1039.76" y2="72.7875" gradientUnits="userSpaceOnUse">
<stop stop-color="#9DDAF9"/>
<stop offset="0.6274" stop-color="#3886AD"/>
<stop offset="1" stop-color="#005884"/>
</linearGradient>
<linearGradient id="paint28_linear_215_2" x1="771.92" y1="2505.26" x2="771.92" y2="72.8435" gradientUnits="userSpaceOnUse">
<stop stop-color="#9DDAF9"/>
<stop offset="0.6274" stop-color="#3886AD"/>
<stop offset="1" stop-color="#005884"/>
</linearGradient>
<radialGradient id="paint29_radial_215_2" cx="0" cy="0" r="1" gradientUnits="userSpaceOnUse" gradientTransform="translate(-59.3433 2182.07) scale(70.4361 206.674)">
<stop stop-color="#FFFFEB"/>
<stop offset="0.1531" stop-color="#BDBDAE"/>
<stop offset="0.3046" stop-color="#838379"/>
<stop offset="0.4494" stop-color="#54544E"/>
<stop offset="0.5864" stop-color="#30302C"/>
<stop offset="0.7135" stop-color="#151514"/>
<stop offset="0.8272" stop-color="#060605"/>
<stop offset="0.9162"/>
</radialGradient>
<clipPath id="clip0_215_2">
<rect width="1080" height="2050" fill="white"/>
</clipPath>
</defs>
</svg>
