<svg width="418" height="4071" viewBox="0 0 418 4071" fill="none" xmlns="http://www.w3.org/2000/svg">
<g clip-path="url(#clip0_327_13)">
<path d="M0.0793457 403.166V411.061C0.70744 410.161 1.12617 408.729 1.12617 407.093C1.12617 405.498 0.70744 404.066 0.0793457 403.166Z" fill="#01A7E1"/>
<path d="M324.856 73.1437V75.1611H342.052V73.1437H324.856Z" fill="#164059"/>
<path d="M324.844 62.3625V64.3799H342.04V62.3625H324.844Z" fill="#164059"/>
<path d="M324.855 51.5813V53.5986H342.051V51.5813H324.855Z" fill="#164059"/>
<path d="M324.843 40.803V42.8203H342.039V40.803H324.843Z" fill="#164059"/>
<path d="M324.854 30.0188V32.0361H342.051V30.0188H324.854Z" fill="#164059"/>
<path d="M324.842 19.2395V21.2568H342.039V19.2395H324.842Z" fill="#164059"/>
<path d="M324.854 8.45922V10.4766L342.05 10.4766V8.45922L324.854 8.45922Z" fill="#164059"/>
<path d="M332.491 776.473V778.49H349.687V776.473H332.491Z" fill="#164059"/>
<path d="M332.479 765.695V767.713H349.675V765.695H332.479Z" fill="#164059"/>
<path d="M332.49 754.913V756.931H349.686V754.913H332.49Z" fill="#164059"/>
<path d="M332.501 744.131V746.148H349.697V744.131H332.501Z" fill="#164059"/>
<path d="M332.489 733.351V735.368H349.686V733.351H332.489Z" fill="#164059"/>
<path d="M332.5 722.569V724.586H349.697V722.569H332.5Z" fill="#164059"/>
<path d="M332.489 711.788V713.806H349.685V711.788H332.489Z" fill="#164059"/>
<path d="M332.5 701.009V703.026H349.696V701.009H332.5Z" fill="#164059"/>
<path d="M332.488 690.224V692.241H349.684V690.224H332.488Z" fill="#164059"/>
<path d="M332.499 679.447V681.465H349.695V679.447H332.499Z" fill="#164059"/>
<path d="M332.487 668.665V670.683H349.683V668.665H332.487Z" fill="#164059"/>
<path d="M332.498 657.885V659.902H349.695V657.885H332.498Z" fill="#164059"/>
<path d="M332.486 647.103V649.12H349.682V647.103H332.486Z" fill="#164059"/>
<path d="M332.498 636.323V638.34H349.694V636.323H332.498Z" fill="#164059"/>
<path d="M332.486 625.543V627.561H349.682V625.543H332.486Z" fill="#164059"/>
<path d="M332.497 614.762V616.779H349.693V614.762H332.497Z" fill="#164059"/>
<path d="M332.485 603.982V605.999H349.681V603.982H332.485Z" fill="#164059"/>
<path d="M332.496 593.199V595.217H349.693V593.199H332.496Z" fill="#164059"/>
<path d="M332.484 582.421V584.438H349.68V582.421H332.484Z" fill="#164059"/>
<path d="M332.495 571.637V573.654H349.692V571.637H332.495Z" fill="#164059"/>
<path d="M398.589 224.736L422.092 178.886V175.089L397.258 223.66V458.479L415.143 493.401V674.021L401.207 701.233V983.741H402.538V702.308L416.474 675.097V492.325L398.589 457.403V224.736Z" fill="#164059"/>
<path d="M341.526 571.876H340.195V393.184L368.641 337.595V0.000959246L369.297 0L369.973 338.671L341.526 394.26V571.876Z" fill="#164059"/>
<path d="M295.434 658.728C286.967 675.091 278.89 693.292 270.423 709.699V1011H436V457.666L435.268 456.5V447.265C435.497 446.727 435.771 446.19 436 445.652L435.667 0H265V219.664C272.78 234.189 281.178 250.373 288.958 264.942V523.476L295.434 533.608V658.728Z" fill="#164059"/>
<path d="M318.386 985.02H306.322V995.192H325.923V1006.4H398.361H404.792H410.18H422V976.73V457.3V456.202V447.482V445.273V0H296.74V216.733L315.951 254.195V521.045L321.672 532.203V664.575L294.443 717.721V957.147H281V976.73H318.386V985.02Z" fill="url(#paint0_linear_327_13)"/>
<path d="M358.515 151.442H378.288V194.158H395.84V125.614H416.711V72.1181H422V36.1687V0H353V59.2269H358.515V151.442Z" fill="url(#paint1_linear_327_13)"/>
<path d="M422 705.415V648.335H421.379V510.096H396.305V620.265H394.511V654.926H391.038V668.288H386V833.565H389.75V861.141H400.975V833.565H404.633V929.431H422V755.59H412.385V668.288H412.339V667.167H420.689V705.415H422Z" fill="url(#paint2_linear_327_13)"/>
<path d="M387 568.688H371.812V568.866H363.278V571.224H353V719.189H376.745V663.34H387V568.688Z" fill="url(#paint3_linear_327_13)"/>
<path d="M399.135 428.495V489.416H421V456.121L420.888 455.943V446.749L421 446.526V349.721H405.129V335.082H403.916V302.68H403.018V289.514H388.314V302.68H388V404.305H390.492V428.495H399.135Z" fill="url(#paint4_linear_327_13)"/>
<path d="M306.15 986.21V996.402H325.816V1006.65V1009.85H343.559L345.158 942.61H350V804.808H344.651V721.022H337.366V637.595H325.447V618.152H321.573V583.623H321.55V665.119L302 703.196V764.801H314.611V779.932H321.366V816.976H318.553V896.137H319.429V904.803H312.421V895.284H309.839V904.803H302.553V977.903H318.254V986.21H306.15Z" fill="url(#paint5_linear_327_13)"/>
<path d="M397 1009.85V991.568H394.335V888.214H377.282V838.671H361.827V934.928H374.131V991.568H373.551V975.847H353.439V1006.08H348.041V1009.85L341 1006.08V1009.85H397Z" fill="url(#paint6_linear_327_13)"/>
<path d="M340.122 345.472H339V465.961H347.612V503.048H352.491V553.752H365.821V503.048H370.608V439.534H374.754V485.221H384.328V458.167H389V427.261H384.328V425.201H377.342V344.263H363.095V317.612H368.936V273.493H363.095V247.38H355.697V222.879H347.612V247.38H340.122V345.472Z" fill="url(#paint7_linear_327_13)"/>
<path d="M316.145 342.362H325.763V276.045H317.931V252.624H317.565V157.591H313.397V129.144H316.351V134.528H319.74V233.375H345V74.359H322.122V57.4434H310.74V117.343H297V216.998L316.145 254.508V342.362Z" fill="url(#paint8_linear_327_13)"/>
<path d="M422 982.278H270.416L270.416 1011H422V996.681V982.278Z" fill="#164059"/>
<path d="M318.874 976.668L327 982.6L324.551 988.976L316.425 983.045L318.874 976.668Z" fill="#164059"/>
<path d="M270.422 957.004H294.445L294.5 982.279L270.422 982.368V957.004Z" fill="#164059"/>
<path d="M294.506 976.668H318.861V983.863H294.506V976.668Z" fill="#164059"/>
<path d="M321.856 3963.86V3961.84H339.052V3963.86H321.856Z" fill="#164059"/>
<path d="M321.844 3974.64V3972.62H339.04V3974.64H321.844Z" fill="#164059"/>
<path d="M321.855 3985.42V3983.4H339.051V3985.42H321.855Z" fill="#164059"/>
<path d="M321.843 3996.2V3994.18H339.039V3996.2H321.843Z" fill="#164059"/>
<path d="M321.854 4006.98V4004.96H339.051V4006.98H321.854Z" fill="#164059"/>
<path d="M321.842 4017.76V4015.74H339.039V4017.76H321.842Z" fill="#164059"/>
<path d="M321.854 4028.54V4026.52H339.05V4028.54H321.854Z" fill="#164059"/>
<path d="M329.491 3260.53V3258.51H346.687V3260.53H329.491Z" fill="#164059"/>
<path d="M329.479 3271.3V3269.29H346.675V3271.3H329.479Z" fill="#164059"/>
<path d="M329.49 3282.09V3280.07H346.686V3282.09H329.49Z" fill="#164059"/>
<path d="M329.501 3292.87V3290.85H346.697V3292.87H329.501Z" fill="#164059"/>
<path d="M329.489 3303.65V3301.63H346.686V3303.65H329.489Z" fill="#164059"/>
<path d="M329.5 3314.43V3312.41H346.697V3314.43H329.5Z" fill="#164059"/>
<path d="M329.489 3325.21V3323.19H346.685V3325.21H329.489Z" fill="#164059"/>
<path d="M329.5 3335.99V3333.97H346.696V3335.99H329.5Z" fill="#164059"/>
<path d="M329.488 3346.78V3344.76H346.684V3346.78H329.488Z" fill="#164059"/>
<path d="M329.499 3357.55V3355.54H346.695V3357.55H329.499Z" fill="#164059"/>
<path d="M329.487 3368.33V3366.32H346.683V3368.33H329.487Z" fill="#164059"/>
<path d="M329.498 3379.11V3377.1H346.695V3379.11H329.498Z" fill="#164059"/>
<path d="M329.486 3389.9V3387.88H346.682V3389.9H329.486Z" fill="#164059"/>
<path d="M329.498 3400.68V3398.66H346.694V3400.68H329.498Z" fill="#164059"/>
<path d="M329.486 3411.46V3409.44H346.682V3411.46H329.486Z" fill="#164059"/>
<path d="M329.497 3422.24V3420.22H346.693V3422.24H329.497Z" fill="#164059"/>
<path d="M329.485 3433.02V3431H346.681V3433.02H329.485Z" fill="#164059"/>
<path d="M329.496 3443.8V3441.78H346.693V3443.8H329.496Z" fill="#164059"/>
<path d="M329.484 3454.58V3452.56H346.68V3454.58H329.484Z" fill="#164059"/>
<path d="M329.495 3465.36V3463.35H346.692V3465.36H329.495Z" fill="#164059"/>
<path d="M395.589 3812.26L419.092 3858.11V3861.91L394.258 3813.34V3578.52L412.143 3543.6V3362.98L398.207 3335.77V3053.26H399.538V3334.69L413.474 3361.9V3544.67L395.589 3579.6V3812.26Z" fill="#164059"/>
<path d="M338.526 3465.12H337.195V3643.82L365.641 3699.41V4037L366.297 4037L366.973 3698.33L338.526 3642.74V3465.12Z" fill="#164059"/>
<path d="M292.434 3378.27C283.967 3361.91 275.89 3343.71 267.423 3327.3V3026H433V3579.33L432.268 3580.5V3589.73C432.497 3590.27 432.771 3590.81 433 3591.35L432.667 4037H262V3817.34C269.78 3802.81 278.178 3786.63 285.958 3772.06V3513.52L292.434 3503.39V3378.27Z" fill="#164059"/>
<path d="M315.386 3051.98H303.322V3041.81H322.923V3030.6H395.361H401.792H407.18H419V3060.27V3579.7V3580.8V3589.52V3591.73V4037H293.74V3820.27L312.951 3782.81V3515.95L318.672 3504.8V3372.42L291.443 3319.28V3079.85H278V3060.27H315.386V3051.98Z" fill="url(#paint9_linear_327_13)"/>
<path d="M355.515 3885.56H375.288V3842.84H392.84V3911.39H413.711V3964.88H419V4000.83V4037H350V3977.77H355.515V3885.56Z" fill="url(#paint10_linear_327_13)"/>
<path d="M419 3331.59V3388.67H418.379V3526.9H393.305V3416.73H391.511V3382.07H388.038V3368.71H383V3203.44H386.75V3175.86H397.975V3203.44H401.633V3107.57H419V3281.41H409.385V3368.71H409.339V3369.83H417.689V3331.59H419Z" fill="url(#paint11_linear_327_13)"/>
<path d="M384 3468.31H368.812V3468.13H360.278V3465.78H350V3317.81H373.745V3373.66H384V3468.31Z" fill="url(#paint12_linear_327_13)"/>
<path d="M396.135 3608.51V3547.58H418V3580.88L417.888 3581.06V3590.25L418 3590.47V3687.28H402.129V3701.92H400.916V3734.32H400.018V3747.49H385.314V3734.32H385V3632.7H387.492V3608.51H396.135Z" fill="url(#paint13_linear_327_13)"/>
<path d="M303.15 3050.79V3040.6H322.816V3030.35V3027.15H340.559L342.158 3094.39H347V3232.19H341.651V3315.98H334.366V3399.41H322.447V3418.85H318.573V3453.38H318.55V3371.88L299 3333.8V3272.2H311.611V3257.07H318.366V3220.02H315.553V3140.86H316.429V3132.2H309.421V3141.72H306.839V3132.2H299.553V3059.1H315.254V3050.79H303.15Z" fill="url(#paint14_linear_327_13)"/>
<path d="M394 3027.15V3045.43H391.335V3148.79H374.282V3198.33H358.827V3102.07H371.131V3045.43H370.551V3061.15H350.439V3030.92H345.041V3027.15L338 3030.92V3027.15H394Z" fill="url(#paint15_linear_327_13)"/>
<path d="M337.122 3691.53H336V3571.04H344.612V3533.95H349.491V3483.25H362.821V3533.95H367.608V3597.47H371.754V3551.78H381.328V3578.83H386V3609.74H381.328V3611.8H374.342V3692.74H360.095V3719.39H365.936V3763.51H360.095V3789.62H352.697V3814.12H344.612V3789.62H337.122V3691.53Z" fill="url(#paint16_linear_327_13)"/>
<path d="M313.145 3694.64H322.763V3760.95H314.931V3784.38H314.565V3879.41H310.397V3907.86H313.351V3902.47H316.74V3803.63H342V3962.64H319.122V3979.56H307.74V3919.66H294V3820L313.145 3782.49V3694.64Z" fill="url(#paint17_linear_327_13)"/>
<path d="M419 3054.72H267.416L267.416 3026H419V3040.32V3054.72Z" fill="#164059"/>
<path d="M315.874 3060.33L324 3054.4L321.551 3048.02L313.425 3053.96L315.874 3060.33Z" fill="#164059"/>
<path d="M267.422 3080H291.445L291.5 3054.72L267.422 3054.63V3080Z" fill="#164059"/>
<path d="M291.506 3060.33H315.861V3053.14H291.506V3060.33Z" fill="#164059"/>
<path d="M321.854 4067.02V4069.04H339.051V4067.02H321.854Z" fill="#164059"/>
<path d="M321.842 4056.24V4058.26H339.039V4056.24H321.842Z" fill="#164059"/>
<path d="M321.854 4045.46V4047.48H339.05V4045.46H321.854Z" fill="#164059"/>
<path d="M338.526 4608.88H337.195V4430.18L365.641 4374.59V4037L366.297 4037L366.973 4375.67L338.526 4431.26V4608.88Z" fill="#164059"/>
<path d="M292.434 4695.73C283.967 4712.09 275.89 4730.29 267.423 4746.7V5048H433V4494.67L432.268 4493.5V4484.27C432.497 4483.73 432.771 4483.19 433 4482.65L432.667 4037H262V4256.66C269.78 4271.19 278.178 4287.37 285.958 4301.94V4560.48L292.434 4570.61V4695.73Z" fill="#164059"/>
<path d="M315.386 5022.02H303.322V5032.19H322.923V5043.4H395.361H401.792H407.18H419V5013.73V4494.3V4493.2V4484.48V4482.27V4037H293.74V4253.73L312.951 4291.19V4558.05L318.672 4569.2V4701.58L291.443 4754.72V4994.15H278V5013.73H315.386V5022.02Z" fill="url(#paint18_linear_327_13)"/>
<path d="M355.515 4188.44H375.288V4231.16H392.84V4162.61H413.711V4109.12H419V4073.17V4037H350V4096.23H355.515V4188.44Z" fill="url(#paint19_linear_327_13)"/>
<path d="M321.856 2089.14V2091.16H339.052V2089.14H321.856Z" fill="#164059"/>
<path d="M321.844 2078.36V2080.38H339.04V2078.36H321.844Z" fill="#164059"/>
<path d="M321.855 2067.58V2069.6H339.051V2067.58H321.855Z" fill="#164059"/>
<path d="M321.843 2056.8V2058.82H339.039V2056.8H321.843Z" fill="#164059"/>
<path d="M321.854 2046.02V2048.04H339.051V2046.02H321.854Z" fill="#164059"/>
<path d="M321.842 2035.24V2037.26H339.039V2035.24H321.842Z" fill="#164059"/>
<path d="M321.854 2024.46V2026.48H339.05V2024.46H321.854Z" fill="#164059"/>
<path d="M329.491 2792.47V2794.49H346.687V2792.47H329.491Z" fill="#164059"/>
<path d="M329.479 2781.7V2783.71H346.675V2781.7H329.479Z" fill="#164059"/>
<path d="M329.49 2770.91V2772.93H346.686V2770.91H329.49Z" fill="#164059"/>
<path d="M329.501 2760.13V2762.15H346.697V2760.13H329.501Z" fill="#164059"/>
<path d="M329.489 2749.35V2751.37H346.686V2749.35H329.489Z" fill="#164059"/>
<path d="M329.5 2738.57V2740.59H346.697V2738.57H329.5Z" fill="#164059"/>
<path d="M329.489 2727.79V2729.81H346.685V2727.79H329.489Z" fill="#164059"/>
<path d="M329.5 2717.01V2719.03H346.696V2717.01H329.5Z" fill="#164059"/>
<path d="M329.488 2706.22V2708.24H346.684V2706.22H329.488Z" fill="#164059"/>
<path d="M329.499 2695.45V2697.46H346.695V2695.45H329.499Z" fill="#164059"/>
<path d="M329.487 2684.67V2686.68H346.683V2684.67H329.487Z" fill="#164059"/>
<path d="M329.498 2673.89V2675.9H346.695V2673.89H329.498Z" fill="#164059"/>
<path d="M329.486 2663.1V2665.12H346.682V2663.1H329.486Z" fill="#164059"/>
<path d="M329.498 2652.32V2654.34H346.694V2652.32H329.498Z" fill="#164059"/>
<path d="M329.486 2641.54V2643.56H346.682V2641.54H329.486Z" fill="#164059"/>
<path d="M329.497 2630.76V2632.78H346.693V2630.76H329.497Z" fill="#164059"/>
<path d="M329.485 2619.98V2622H346.681V2619.98H329.485Z" fill="#164059"/>
<path d="M329.496 2609.2V2611.22H346.693V2609.2H329.496Z" fill="#164059"/>
<path d="M329.484 2598.42V2600.44H346.68V2598.42H329.484Z" fill="#164059"/>
<path d="M329.495 2587.64V2589.65H346.692V2587.64H329.495Z" fill="#164059"/>
<path d="M395.589 2240.74L419.092 2194.89V2191.09L394.258 2239.66V2474.48L412.143 2509.4V2690.02L398.207 2717.23V2999.74H399.538V2718.31L413.474 2691.1V2508.33L395.589 2473.4V2240.74Z" fill="#164059"/>
<path d="M338.526 2587.88H337.195V2409.18L365.641 2353.59V2016L366.297 2016L366.973 2354.67L338.526 2410.26V2587.88Z" fill="#164059"/>
<path d="M292.434 2674.73C283.967 2691.09 275.89 2709.29 267.423 2725.7V3027H433V2473.67L432.268 2472.5V2463.27C432.497 2462.73 432.771 2462.19 433 2461.65L432.667 2016H262V2235.66C269.78 2250.19 278.178 2266.37 285.958 2280.94V2539.48L292.434 2549.61V2674.73Z" fill="#164059"/>
<path d="M315.386 3001.02H303.322V3011.19H322.923V3022.4H395.361H401.792H407.18H419V2992.73V2473.3V2472.2V2463.48V2461.27V2016H293.74V2232.73L312.951 2270.19V2537.05L318.672 2548.2V2680.58L291.443 2733.72V2973.15H278V2992.73H315.386V3001.02Z" fill="url(#paint20_linear_327_13)"/>
<path d="M355.515 2167.44H375.288V2210.16H392.84V2141.61H413.711V2088.12H419V2052.17V2016H350V2075.23H355.515V2167.44Z" fill="url(#paint21_linear_327_13)"/>
<path d="M419 2721.41V2664.33H418.379V2526.1H393.305V2636.27H391.511V2670.93H388.038V2684.29H383V2849.56H386.75V2877.14H397.975V2849.56H401.633V2945.43H419V2771.59H409.385V2684.29H409.339V2683.17H417.689V2721.41H419Z" fill="url(#paint22_linear_327_13)"/>
<path d="M384 2584.69H368.812V2584.87H360.278V2587.22H350V2735.19H373.745V2679.34H384V2584.69Z" fill="url(#paint23_linear_327_13)"/>
<path d="M396.135 2444.49V2505.42H418V2472.12L417.888 2471.94V2462.75L418 2462.53V2365.72H402.129V2351.08H400.916V2318.68H400.018V2305.51H385.314V2318.68H385V2420.3H387.492V2444.49H396.135Z" fill="url(#paint24_linear_327_13)"/>
<path d="M303.15 3002.21V3012.4H322.816V3022.65V3025.85H340.559L342.158 2958.61H347V2820.81H341.651V2737.02H334.366V2653.59H322.447V2634.15H318.573V2599.62H318.55V2681.12L299 2719.2V2780.8H311.611V2795.93H318.366V2832.98H315.553V2912.14H316.429V2920.8H309.421V2911.28H306.839V2920.8H299.553V2993.9H315.254V3002.21H303.15Z" fill="url(#paint25_linear_327_13)"/>
<path d="M394 3025.85V3007.57H391.335V2904.21H374.282V2854.67H358.827V2950.93H371.131V3007.57H370.551V2991.85H350.439V3022.08H345.041V3025.85L338 3022.08V3025.85H394Z" fill="url(#paint26_linear_327_13)"/>
<path d="M337.122 2361.47H336V2481.96H344.612V2519.05H349.491V2569.75H362.821V2519.05H367.608V2455.53H371.754V2501.22H381.328V2474.17H386V2443.26H381.328V2441.2H374.342V2360.26H360.095V2333.61H365.936V2289.49H360.095V2263.38H352.697V2238.88H344.612V2263.38H337.122V2361.47Z" fill="url(#paint27_linear_327_13)"/>
<path d="M313.145 2358.36H322.763V2292.05H314.931V2268.62H314.565V2173.59H310.397V2145.14H313.351V2150.53H316.74V2249.37H342V2090.36H319.122V2073.44H307.74V2133.34H294V2233L313.145 2270.51V2358.36Z" fill="url(#paint28_linear_327_13)"/>
<path d="M419 2998.28H267.416L267.416 3027H419V3012.68V2998.28Z" fill="#164059"/>
<path d="M315.874 2992.67L324 2998.6L321.551 3004.98L313.425 2999.04L315.874 2992.67Z" fill="#164059"/>
<path d="M267.422 2973H291.445L291.5 2998.28L267.422 2998.37V2973Z" fill="#164059"/>
<path d="M291.506 2992.67H315.861V2999.86H291.506V2992.67Z" fill="#164059"/>
<path d="M321.856 1943.86V1941.84H339.052V1943.86H321.856Z" fill="#164059"/>
<path d="M321.844 1954.64V1952.62H339.04V1954.64H321.844Z" fill="#164059"/>
<path d="M321.855 1965.42V1963.4H339.051V1965.42H321.855Z" fill="#164059"/>
<path d="M321.843 1976.2V1974.18H339.039V1976.2H321.843Z" fill="#164059"/>
<path d="M321.854 1986.98V1984.96H339.051V1986.98H321.854Z" fill="#164059"/>
<path d="M321.842 1997.76V1995.74H339.039V1997.76H321.842Z" fill="#164059"/>
<path d="M321.854 2008.54V2006.52H339.05V2008.54H321.854Z" fill="#164059"/>
<path d="M329.491 1240.53V1238.51H346.687V1240.53H329.491Z" fill="#164059"/>
<path d="M329.479 1251.3V1249.29H346.675V1251.3H329.479Z" fill="#164059"/>
<path d="M329.49 1262.09V1260.07H346.686V1262.09H329.49Z" fill="#164059"/>
<path d="M329.501 1272.87V1270.85H346.697V1272.87H329.501Z" fill="#164059"/>
<path d="M329.489 1283.65V1281.63H346.686V1283.65H329.489Z" fill="#164059"/>
<path d="M329.5 1294.43V1292.41H346.697V1294.43H329.5Z" fill="#164059"/>
<path d="M329.489 1305.21V1303.19H346.685V1305.21H329.489Z" fill="#164059"/>
<path d="M329.5 1315.99V1313.97H346.696V1315.99H329.5Z" fill="#164059"/>
<path d="M329.488 1326.78V1324.76H346.684V1326.78H329.488Z" fill="#164059"/>
<path d="M329.499 1337.55V1335.54H346.695V1337.55H329.499Z" fill="#164059"/>
<path d="M329.487 1348.33V1346.32H346.683V1348.33H329.487Z" fill="#164059"/>
<path d="M329.498 1359.11V1357.1H346.695V1359.11H329.498Z" fill="#164059"/>
<path d="M329.486 1369.9V1367.88H346.682V1369.9H329.486Z" fill="#164059"/>
<path d="M329.498 1380.68V1378.66H346.694V1380.68H329.498Z" fill="#164059"/>
<path d="M329.486 1391.46V1389.44H346.682V1391.46H329.486Z" fill="#164059"/>
<path d="M329.497 1402.24V1400.22H346.693V1402.24H329.497Z" fill="#164059"/>
<path d="M329.485 1413.02V1411H346.681V1413.02H329.485Z" fill="#164059"/>
<path d="M329.496 1423.8V1421.78H346.693V1423.8H329.496Z" fill="#164059"/>
<path d="M329.484 1434.58V1432.56H346.68V1434.58H329.484Z" fill="#164059"/>
<path d="M329.495 1445.36V1443.35H346.692V1445.36H329.495Z" fill="#164059"/>
<path d="M395.589 1792.26L419.092 1838.11V1841.91L394.258 1793.34V1558.52L412.143 1523.6V1342.98L398.207 1315.77V1033.26H399.538V1314.69L413.474 1341.9V1524.67L395.589 1559.6V1792.26Z" fill="#164059"/>
<path d="M338.526 1445.12H337.195V1623.82L365.641 1679.41V2017L366.297 2017L366.973 1678.33L338.526 1622.74V1445.12Z" fill="#164059"/>
<path d="M292.434 1358.27C283.967 1341.91 275.89 1323.71 267.423 1307.3V1006H433V1559.33L432.268 1560.5V1569.73C432.497 1570.27 432.771 1570.81 433 1571.35L432.667 2017H262V1797.34C269.78 1782.81 278.178 1766.63 285.958 1752.06V1493.52L292.434 1483.39V1358.27Z" fill="#164059"/>
<path d="M315.386 1031.98H303.322V1021.81H322.923V1010.6H395.361H401.792H407.18H419V1040.27V1559.7V1560.8V1569.52V1571.73V2017H293.74V1800.27L312.951 1762.81V1495.95L318.672 1484.8V1352.42L291.443 1299.28V1059.85H278V1040.27H315.386V1031.98Z" fill="url(#paint29_linear_327_13)"/>
<path d="M355.515 1865.56H375.288V1822.84H392.84V1891.39H413.711V1944.88H419V1980.83V2017H350V1957.77H355.515V1865.56Z" fill="url(#paint30_linear_327_13)"/>
<path d="M419 1311.59V1368.67H418.379V1506.9H393.305V1396.73H391.511V1362.07H388.038V1348.71H383V1183.44H386.75V1155.86H397.975V1183.44H401.633V1087.57H419V1261.41H409.385V1348.71H409.339V1349.83H417.689V1311.59H419Z" fill="url(#paint31_linear_327_13)"/>
<path d="M384 1448.31H368.812V1448.13H360.278V1445.78H350V1297.81H373.745V1353.66H384V1448.31Z" fill="url(#paint32_linear_327_13)"/>
<path d="M396.135 1588.51V1527.58H418V1560.88L417.888 1561.06V1570.25L418 1570.47V1667.28H402.129V1681.92H400.916V1714.32H400.018V1727.49H385.314V1714.32H385V1612.7H387.492V1588.51H396.135Z" fill="url(#paint33_linear_327_13)"/>
<path d="M303.15 1030.79V1020.6H322.816V1010.35V1007.15H340.559L342.158 1074.39H347V1212.19H341.651V1295.98H334.366V1379.41H322.447V1398.85H318.573V1433.38H318.55V1351.88L299 1313.8V1252.2H311.611V1237.07H318.366V1200.02H315.553V1120.86H316.429V1112.2H309.421V1121.72H306.839V1112.2H299.553V1039.1H315.254V1030.79H303.15Z" fill="url(#paint34_linear_327_13)"/>
<path d="M394 1007.15V1025.43H391.335V1128.79H374.282V1178.33H358.827V1082.07H371.131V1025.43H370.551V1041.15H350.439V1010.92H345.041V1007.15L338 1010.92V1007.15H394Z" fill="url(#paint35_linear_327_13)"/>
<path d="M337.122 1671.53H336V1551.04H344.612V1513.95H349.491V1463.25H362.821V1513.95H367.608V1577.47H371.754V1531.78H381.328V1558.83H386V1589.74H381.328V1591.8H374.342V1672.74H360.095V1699.39H365.936V1743.51H360.095V1769.62H352.697V1794.12H344.612V1769.62H337.122V1671.53Z" fill="url(#paint36_linear_327_13)"/>
<path d="M313.145 1674.64H322.763V1740.95H314.931V1764.38H314.565V1859.41H310.397V1887.86H313.351V1882.47H316.74V1783.63H342V1942.64H319.122V1959.56H307.74V1899.66H294V1800L313.145 1762.49V1674.64Z" fill="url(#paint37_linear_327_13)"/>
<path d="M419 1034.72H267.416L267.416 1006H419V1020.32V1034.72Z" fill="#164059"/>
<path d="M315.874 1040.33L324 1034.4L321.551 1028.02L313.425 1033.96L315.874 1040.33Z" fill="#164059"/>
<path d="M267.422 1060H291.445L291.5 1034.72L267.422 1034.63V1060Z" fill="#164059"/>
<path d="M291.506 1040.33H315.861V1033.14H291.506V1040.33Z" fill="#164059"/>
</g>
<defs>
<linearGradient id="paint0_linear_327_13" x1="351.326" y1="1723.1" x2="351.326" y2="47.8974" gradientUnits="userSpaceOnUse">
<stop stop-color="#003A57"/>
<stop offset="0.625" stop-color="#3886AD"/>
<stop offset="0.729167" stop-color="#4699C3"/>
<stop offset="1" stop-color="#69C7F7"/>
</linearGradient>
<linearGradient id="paint1_linear_327_13" x1="387.325" y1="1675.04" x2="387.325" y2="-4.12675" gradientUnits="userSpaceOnUse">
<stop offset="0.609375" stop-color="#005884"/>
<stop offset="0.796875" stop-color="#69B8E0"/>
<stop offset="0.9375" stop-color="#4596B1" stop-opacity="0.14"/>
</linearGradient>
<linearGradient id="paint2_linear_327_13" x1="403.994" y1="1671.93" x2="403.994" y2="-4.31996" gradientUnits="userSpaceOnUse">
<stop stop-color="#005884"/>
<stop offset="0.59375" stop-color="#3F88AC"/>
<stop offset="1" stop-color="#9DDAF9"/>
</linearGradient>
<linearGradient id="paint3_linear_327_13" x1="370" y1="1664.7" x2="370" y2="1.10675" gradientUnits="userSpaceOnUse">
<stop stop-color="#025179"/>
<stop offset="0.625" stop-color="#3E90B9"/>
<stop offset="1" stop-color="#9DDAF9"/>
</linearGradient>
<linearGradient id="paint4_linear_327_13" x1="404.501" y1="1666.08" x2="404.501" y2="-2.39438" gradientUnits="userSpaceOnUse">
<stop stop-color="#005884"/>
<stop offset="0.604167" stop-color="#3886AD"/>
<stop offset="1" stop-color="#51C4FF"/>
</linearGradient>
<linearGradient id="paint5_linear_327_13" x1="326.006" y1="1673.66" x2="326.006" y2="-4.92384" gradientUnits="userSpaceOnUse">
<stop stop-color="#1B5B7B"/>
<stop offset="0.6274" stop-color="#3886AD"/>
<stop offset="1" stop-color="#9DDAF9"/>
</linearGradient>
<linearGradient id="paint6_linear_327_13" x1="368.545" y1="1674.14" x2="368.545" y2="-5.02399" gradientUnits="userSpaceOnUse">
<stop stop-color="#003E5C"/>
<stop offset="0.6274" stop-color="#3886AD"/>
<stop offset="1" stop-color="#9DDAF9"/>
</linearGradient>
<linearGradient id="paint7_linear_327_13" x1="363.991" y1="1669.91" x2="363.991" y2="-4.5471" gradientUnits="userSpaceOnUse">
<stop stop-color="#005884"/>
<stop offset="0.59375" stop-color="#3886AD"/>
<stop offset="0.9375" stop-color="#64CBFF"/>
</linearGradient>
<linearGradient id="paint8_linear_327_13" x1="321" y1="1673.23" x2="321" y2="-4.13703" gradientUnits="userSpaceOnUse">
<stop stop-color="#005884"/>
<stop offset="0.447917" stop-color="#3886AD"/>
<stop offset="1" stop-color="#5FBDED"/>
</linearGradient>
<linearGradient id="paint9_linear_327_13" x1="348.326" y1="2313.9" x2="348.326" y2="3989.1" gradientUnits="userSpaceOnUse">
<stop stop-color="#003A57"/>
<stop offset="0.625" stop-color="#3886AD"/>
<stop offset="0.729167" stop-color="#4699C3"/>
<stop offset="1" stop-color="#69C7F7"/>
</linearGradient>
<linearGradient id="paint10_linear_327_13" x1="384.325" y1="2361.96" x2="384.325" y2="4041.13" gradientUnits="userSpaceOnUse">
<stop offset="0.609375" stop-color="#005884"/>
<stop offset="0.796875" stop-color="#69B8E0"/>
<stop offset="0.9375" stop-color="#4596B1" stop-opacity="0.14"/>
</linearGradient>
<linearGradient id="paint11_linear_327_13" x1="400.994" y1="2365.07" x2="400.994" y2="4041.32" gradientUnits="userSpaceOnUse">
<stop stop-color="#005884"/>
<stop offset="0.59375" stop-color="#3F88AC"/>
<stop offset="1" stop-color="#9DDAF9"/>
</linearGradient>
<linearGradient id="paint12_linear_327_13" x1="367" y1="2372.3" x2="367" y2="4035.89" gradientUnits="userSpaceOnUse">
<stop stop-color="#025179"/>
<stop offset="0.625" stop-color="#3E90B9"/>
<stop offset="1" stop-color="#9DDAF9"/>
</linearGradient>
<linearGradient id="paint13_linear_327_13" x1="401.501" y1="2370.92" x2="401.501" y2="4039.39" gradientUnits="userSpaceOnUse">
<stop stop-color="#005884"/>
<stop offset="0.604167" stop-color="#3886AD"/>
<stop offset="1" stop-color="#51C4FF"/>
</linearGradient>
<linearGradient id="paint14_linear_327_13" x1="323.006" y1="2363.34" x2="323.006" y2="4041.92" gradientUnits="userSpaceOnUse">
<stop stop-color="#1B5B7B"/>
<stop offset="0.6274" stop-color="#3886AD"/>
<stop offset="1" stop-color="#9DDAF9"/>
</linearGradient>
<linearGradient id="paint15_linear_327_13" x1="365.545" y1="2362.86" x2="365.545" y2="4042.02" gradientUnits="userSpaceOnUse">
<stop stop-color="#003E5C"/>
<stop offset="0.6274" stop-color="#3886AD"/>
<stop offset="1" stop-color="#9DDAF9"/>
</linearGradient>
<linearGradient id="paint16_linear_327_13" x1="360.991" y1="2367.09" x2="360.991" y2="4041.55" gradientUnits="userSpaceOnUse">
<stop stop-color="#005884"/>
<stop offset="0.59375" stop-color="#3886AD"/>
<stop offset="0.9375" stop-color="#64CBFF"/>
</linearGradient>
<linearGradient id="paint17_linear_327_13" x1="318" y1="2363.77" x2="318" y2="4041.14" gradientUnits="userSpaceOnUse">
<stop stop-color="#005884"/>
<stop offset="0.447917" stop-color="#3886AD"/>
<stop offset="1" stop-color="#5FBDED"/>
</linearGradient>
<linearGradient id="paint18_linear_327_13" x1="348.326" y1="5760.1" x2="348.326" y2="4084.9" gradientUnits="userSpaceOnUse">
<stop stop-color="#003A57"/>
<stop offset="0.625" stop-color="#3886AD"/>
<stop offset="0.729167" stop-color="#4699C3"/>
<stop offset="1" stop-color="#69C7F7"/>
</linearGradient>
<linearGradient id="paint19_linear_327_13" x1="384.325" y1="5712.04" x2="384.325" y2="4032.87" gradientUnits="userSpaceOnUse">
<stop offset="0.609375" stop-color="#005884"/>
<stop offset="0.796875" stop-color="#69B8E0"/>
<stop offset="0.9375" stop-color="#4596B1" stop-opacity="0.14"/>
</linearGradient>
<linearGradient id="paint20_linear_327_13" x1="348.326" y1="3739.1" x2="348.326" y2="2063.9" gradientUnits="userSpaceOnUse">
<stop stop-color="#003A57"/>
<stop offset="0.625" stop-color="#3886AD"/>
<stop offset="0.729167" stop-color="#4699C3"/>
<stop offset="1" stop-color="#69C7F7"/>
</linearGradient>
<linearGradient id="paint21_linear_327_13" x1="384.325" y1="3691.04" x2="384.325" y2="2011.87" gradientUnits="userSpaceOnUse">
<stop offset="0.609375" stop-color="#005884"/>
<stop offset="0.796875" stop-color="#69B8E0"/>
<stop offset="0.9375" stop-color="#4596B1" stop-opacity="0.14"/>
</linearGradient>
<linearGradient id="paint22_linear_327_13" x1="400.994" y1="3687.93" x2="400.994" y2="2011.68" gradientUnits="userSpaceOnUse">
<stop stop-color="#005884"/>
<stop offset="0.59375" stop-color="#3F88AC"/>
<stop offset="1" stop-color="#9DDAF9"/>
</linearGradient>
<linearGradient id="paint23_linear_327_13" x1="367" y1="3680.7" x2="367" y2="2017.11" gradientUnits="userSpaceOnUse">
<stop stop-color="#025179"/>
<stop offset="0.625" stop-color="#3E90B9"/>
<stop offset="1" stop-color="#9DDAF9"/>
</linearGradient>
<linearGradient id="paint24_linear_327_13" x1="401.501" y1="3682.08" x2="401.501" y2="2013.61" gradientUnits="userSpaceOnUse">
<stop stop-color="#005884"/>
<stop offset="0.604167" stop-color="#3886AD"/>
<stop offset="1" stop-color="#51C4FF"/>
</linearGradient>
<linearGradient id="paint25_linear_327_13" x1="323.006" y1="3689.66" x2="323.006" y2="2011.08" gradientUnits="userSpaceOnUse">
<stop stop-color="#1B5B7B"/>
<stop offset="0.6274" stop-color="#3886AD"/>
<stop offset="1" stop-color="#9DDAF9"/>
</linearGradient>
<linearGradient id="paint26_linear_327_13" x1="365.545" y1="3690.14" x2="365.545" y2="2010.98" gradientUnits="userSpaceOnUse">
<stop stop-color="#003E5C"/>
<stop offset="0.6274" stop-color="#3886AD"/>
<stop offset="1" stop-color="#9DDAF9"/>
</linearGradient>
<linearGradient id="paint27_linear_327_13" x1="360.991" y1="3685.91" x2="360.991" y2="2011.45" gradientUnits="userSpaceOnUse">
<stop stop-color="#005884"/>
<stop offset="0.59375" stop-color="#3886AD"/>
<stop offset="0.9375" stop-color="#64CBFF"/>
</linearGradient>
<linearGradient id="paint28_linear_327_13" x1="318" y1="3689.23" x2="318" y2="2011.86" gradientUnits="userSpaceOnUse">
<stop stop-color="#005884"/>
<stop offset="0.447917" stop-color="#3886AD"/>
<stop offset="1" stop-color="#5FBDED"/>
</linearGradient>
<linearGradient id="paint29_linear_327_13" x1="348.326" y1="293.9" x2="348.326" y2="1969.1" gradientUnits="userSpaceOnUse">
<stop stop-color="#003A57"/>
<stop offset="0.625" stop-color="#3886AD"/>
<stop offset="0.729167" stop-color="#4699C3"/>
<stop offset="1" stop-color="#69C7F7"/>
</linearGradient>
<linearGradient id="paint30_linear_327_13" x1="384.325" y1="341.96" x2="384.325" y2="2021.13" gradientUnits="userSpaceOnUse">
<stop offset="0.609375" stop-color="#005884"/>
<stop offset="0.796875" stop-color="#69B8E0"/>
<stop offset="0.9375" stop-color="#4596B1" stop-opacity="0.14"/>
</linearGradient>
<linearGradient id="paint31_linear_327_13" x1="400.994" y1="345.069" x2="400.994" y2="2021.32" gradientUnits="userSpaceOnUse">
<stop stop-color="#005884"/>
<stop offset="0.59375" stop-color="#3F88AC"/>
<stop offset="1" stop-color="#9DDAF9"/>
</linearGradient>
<linearGradient id="paint32_linear_327_13" x1="367" y1="352.296" x2="367" y2="2015.89" gradientUnits="userSpaceOnUse">
<stop stop-color="#025179"/>
<stop offset="0.625" stop-color="#3E90B9"/>
<stop offset="1" stop-color="#9DDAF9"/>
</linearGradient>
<linearGradient id="paint33_linear_327_13" x1="401.501" y1="350.923" x2="401.501" y2="2019.39" gradientUnits="userSpaceOnUse">
<stop stop-color="#005884"/>
<stop offset="0.604167" stop-color="#3886AD"/>
<stop offset="1" stop-color="#51C4FF"/>
</linearGradient>
<linearGradient id="paint34_linear_327_13" x1="323.006" y1="343.34" x2="323.006" y2="2021.92" gradientUnits="userSpaceOnUse">
<stop stop-color="#1B5B7B"/>
<stop offset="0.6274" stop-color="#3886AD"/>
<stop offset="1" stop-color="#9DDAF9"/>
</linearGradient>
<linearGradient id="paint35_linear_327_13" x1="365.545" y1="342.863" x2="365.545" y2="2022.02" gradientUnits="userSpaceOnUse">
<stop stop-color="#003E5C"/>
<stop offset="0.6274" stop-color="#3886AD"/>
<stop offset="1" stop-color="#9DDAF9"/>
</linearGradient>
<linearGradient id="paint36_linear_327_13" x1="360.991" y1="347.088" x2="360.991" y2="2021.55" gradientUnits="userSpaceOnUse">
<stop stop-color="#005884"/>
<stop offset="0.59375" stop-color="#3886AD"/>
<stop offset="0.9375" stop-color="#64CBFF"/>
</linearGradient>
<linearGradient id="paint37_linear_327_13" x1="318" y1="343.77" x2="318" y2="2021.14" gradientUnits="userSpaceOnUse">
<stop stop-color="#005884"/>
<stop offset="0.447917" stop-color="#3886AD"/>
<stop offset="1" stop-color="#5FBDED"/>
</linearGradient>
<clipPath id="clip0_327_13">
<rect width="418" height="4071" fill="white"/>
</clipPath>
</defs>
</svg>
